<svg xmlns="http://www.w3.org/2000/svg" width="512" height="512" viewBox="0 0 512 512" role="img" aria-label="Avatar">
  <defs>
    <linearGradient id="g" x1="0" y1="0" x2="1" y2="1">
      <stop offset="0" stop-color="#8B5CF6"/>
      <stop offset="1" stop-color="#22D3EE"/>
    </linearGradient>
    <radialGradient id="r" cx="30%" cy="25%" r="80%">
      <stop offset="0" stop-color="#67E8F9" stop-opacity="0.35"/>
      <stop offset="0.55" stop-color="#8B5CF6" stop-opacity="0.22"/>
      <stop offset="1" stop-color="#0B0616" stop-opacity="0"/>
    </radialGradient>
    <filter id="glow" x="-40%" y="-40%" width="180%" height="180%">
      <feGaussianBlur stdDeviation="8" result="b"/>
      <feColorMatrix in="b" type="matrix" values="1 0 0 0 0  0 1 0 0 0  0 0 1 0 0  0 0 0 0.9 0" result="c"/>
      <feMerge>
        <feMergeNode in="c"/>
        <feMergeNode in="SourceGraphic"/>
      </feMerge>
    </filter>
    <clipPath id="clip">
      <circle cx="256" cy="256" r="220"/>
    </clipPath>
  </defs>

  <circle cx="256" cy="256" r="248" fill="#120A24"/>
  <circle cx="256" cy="256" r="236" fill="url(#r)"/>

  <g clip-path="url(#clip)">
    <path d="M110 380c28-76 78-110 146-110s118 34 146 110" fill="url(#g)" opacity="0.22"/>

    <path d="M190 300c18 14 41 22 66 22s48-8 66-22" fill="none" stroke="url(#g)" stroke-width="10" stroke-linecap="round" filter="url(#glow)"/>

    <circle cx="206" cy="222" r="14" fill="#F5F3FF" opacity="0.92"/>
    <circle cx="306" cy="222" r="14" fill="#F5F3FF" opacity="0.92"/>

    <path d="M180 210c12-22 34-36 60-36" fill="none" stroke="#8B5CF6" stroke-width="10" stroke-linecap="round" opacity="0.8"/>
    <path d="M332 210c-12-22-34-36-60-36" fill="none" stroke="#22D3EE" stroke-width="10" stroke-linecap="round" opacity="0.8"/>

    <path d="M170 250c0-60 36-108 86-108s86 48 86 108c0 52-34 92-86 92s-86-40-86-92z" fill="#0B0616" opacity="0.25"/>

    <path d="M162 210c20-54 54-84 94-84s74 30 94 84" fill="none" stroke="url(#g)" stroke-width="12" stroke-linecap="round" opacity="0.95" filter="url(#glow)"/>

    <path d="M144 292c26 30 66 52 112 52s86-22 112-52" fill="none" stroke="#F5F3FF" stroke-width="6" stroke-linecap="round" opacity="0.22"/>

    <g opacity="0.35">
      <path d="M96 120h80" stroke="#8B5CF6" stroke-width="6" stroke-linecap="round"/>
      <path d="M336 120h80" stroke="#22D3EE" stroke-width="6" stroke-linecap="round"/>
      <path d="M90 162h52" stroke="#22D3EE" stroke-width="6" stroke-linecap="round"/>
      <path d="M370 162h52" stroke="#8B5CF6" stroke-width="6" stroke-linecap="round"/>
    </g>
  </g>

  <circle cx="256" cy="256" r="236" fill="none" stroke="url(#g)" stroke-width="2" opacity="0.35"/>
  <circle cx="256" cy="256" r="248" fill="none" stroke="#8B5CF6" stroke-width="2" opacity="0.12"/>
</svg>
